<svg width="1921" height="1295" viewBox="0 0 1921 1295" fill="none" xmlns="http://www.w3.org/2000/svg">
<path d="M1920 0H0V1295H1920V0Z" fill="#F2F0FE"/>
<path opacity="0.26" d="M214.741 953.541L80.0929 992.172C67.6324 995.753 64.4894 1011.95 74.7097 1019.92L197.098 1115.4C206.989 1123.12 221.506 1116.84 222.645 1104.35L234.905 970.232C235.923 959.126 225.457 950.461 214.741 953.541Z" fill="url(#paint0_linear)"/>
<path opacity="0.26" d="M343.502 431.632L146.446 383.662C128.206 379.231 112.641 397.343 119.777 414.701L205.237 622.561C212.144 639.36 234.906 641.872 245.297 626.976L356.893 467.086C366.138 453.847 359.189 435.444 343.502 431.632Z" fill="url(#paint1_linear)"/>
<path opacity="0.26" d="M1829.86 207.442L1883.86 66.9872C1888.86 53.9854 1877 40.8123 1863.55 44.4163L1702.48 87.5747C1689.47 91.0627 1685.46 107.574 1695.43 116.634L1802.5 213.93C1811.36 221.99 1825.57 218.623 1829.86 207.442Z" fill="url(#paint2_linear)"/>
<path opacity="0.2" d="M471.123 296.32L479.098 325.476C479.833 328.171 483.345 328.9 485.109 326.72L506.235 300.627C507.945 298.516 506.622 295.368 503.914 295.083L474.813 292.02C472.399 291.766 470.489 294.001 471.123 296.32Z" fill="url(#paint3_linear)"/>
<path opacity="0.26" d="M172.579 53.9001L64.1451 101.808C55.5466 105.606 56.1004 118.083 64.9987 121.089L142.992 147.461C148.114 149.19 153.682 146.632 155.744 141.603L186.192 67.3225C189.722 58.7204 181.047 50.1648 172.579 53.9001Z" fill="url(#paint4_linear)"/>
<path opacity="0.2" d="M409.84 78.0215L442.346 128.596C444.923 132.607 451.111 131.352 451.913 126.66L458.926 85.5407C459.385 82.8381 457.665 80.2517 454.995 79.609L415.476 70.1539C410.899 69.0543 407.303 74.0722 409.84 78.0215Z" fill="url(#paint5_linear)"/>
<path opacity="0.2" d="M106.835 758.854L138.975 748.806C141.521 748.011 141.715 744.604 139.279 743.546L117.881 734.249C116.48 733.641 114.822 734.181 114.098 735.494L103.364 754.84C102.103 757.083 104.329 759.642 106.835 758.854Z" fill="url(#paint6_linear)"/>
<path opacity="0.2" d="M1594.84 1216.85L1626.98 1206.81C1629.52 1206.01 1629.72 1202.6 1627.28 1201.55L1605.88 1192.25C1604.48 1191.64 1602.82 1192.18 1602.1 1193.49L1591.36 1212.84C1590.1 1215.08 1592.33 1217.64 1594.84 1216.85Z" fill="url(#paint7_linear)"/>
<path opacity="0.26" d="M1748.24 1156.23L1823.2 1161.63C1830.14 1162.13 1834.71 1154.55 1831.03 1148.65L1787.01 1077.96C1783.45 1072.25 1774.98 1072.73 1772.1 1078.81L1741.16 1144.1C1738.6 1149.51 1742.27 1155.8 1748.24 1156.23Z" fill="url(#paint8_linear)"/>
<path opacity="0.2" d="M1696.62 930.02L1725.75 932.12C1728.45 932.31 1730.22 929.37 1728.79 927.07L1711.69 899.6C1710.31 897.38 1707.02 897.57 1705.9 899.93L1693.88 925.3C1692.87 927.41 1694.3 929.85 1696.62 930.02Z" fill="url(#paint9_linear)"/>
<path opacity="0.2" d="M1811.18 893.27L1822.29 881.32C1823.32 880.21 1822.66 878.41 1821.16 878.23L1803.21 876.07C1801.76 875.9 1800.69 877.39 1801.33 878.71L1808.17 892.82C1808.73 893.99 1810.3 894.23 1811.18 893.27Z" fill="url(#paint10_linear)"/>
<path opacity="0.2" d="M1612.24 861.8L1617.17 851.2C1617.63 850.22 1616.78 849.13 1615.71 849.34L1603 851.83C1601.97 852.03 1601.57 853.29 1602.3 854.05L1610.08 862.16C1610.73 862.83 1611.85 862.65 1612.24 861.8Z" fill="url(#paint11_linear)"/>
<path opacity="0.2" d="M1803.24 995.61L1855.9 1031.69C1860.08 1034.55 1865.58 1030.77 1864.41 1025.85L1854.16 982.69C1853.49 979.86 1850.74 978.03 1847.86 978.51L1805.44 985.58C1800.54 986.4 1799.12 992.79 1803.24 995.61Z" fill="url(#paint12_linear)"/>
<path opacity="0.2" d="M1689.94 1044.04L1703.78 1015.02C1704.88 1012.72 1702.57 1010.27 1700.21 1011.24L1679.54 1019.71C1678.18 1020.27 1677.49 1021.78 1677.95 1023.17L1684.78 1043.72C1685.57 1046.1 1688.86 1046.31 1689.94 1044.04Z" fill="url(#paint13_linear)"/>
<path opacity="0.2" d="M1672.73 812.24L1689.44 813.26C1690.76 813.34 1691.49 811.75 1690.57 810.8L1682.45 802.47C1681.92 801.92 1681.05 801.88 1680.47 802.38L1671.88 809.69C1670.88 810.53 1671.43 812.16 1672.73 812.24Z" fill="url(#paint14_linear)"/>
<path opacity="0.2" d="M357 1201C359.761 1201 362 1198.99 362 1196.5C362 1194.01 359.761 1192 357 1192C354.239 1192 352 1194.01 352 1196.5C352 1198.99 354.239 1201 357 1201Z" fill="#884DE0"/>
<path opacity="0.2" d="M393 1201C395.761 1201 398 1198.99 398 1196.5C398 1194.01 395.761 1192 393 1192C390.239 1192 388 1194.01 388 1196.5C388 1198.99 390.239 1201 393 1201Z" fill="#884DE0"/>
<path opacity="0.2" d="M429 1201C431.761 1201 434 1198.99 434 1196.5C434 1194.01 431.761 1192 429 1192C426.239 1192 424 1194.01 424 1196.5C424 1198.99 426.239 1201 429 1201Z" fill="#884DE0"/>
<path opacity="0.2" d="M357 1233C359.761 1233 362 1230.76 362 1228C362 1225.24 359.761 1223 357 1223C354.239 1223 352 1225.24 352 1228C352 1230.76 354.239 1233 357 1233Z" fill="#884DE0"/>
<path opacity="0.2" d="M393 1233C395.761 1233 398 1230.76 398 1228C398 1225.24 395.761 1223 393 1223C390.239 1223 388 1225.24 388 1228C388 1230.76 390.239 1233 393 1233Z" fill="#884DE0"/>
<path opacity="0.2" d="M429 1233C431.761 1233 434 1230.76 434 1228C434 1225.24 431.761 1223 429 1223C426.239 1223 424 1225.24 424 1228C424 1230.76 426.239 1233 429 1233Z" fill="#884DE0"/>
<path opacity="0.2" d="M357 1264C359.761 1264 362 1261.99 362 1259.5C362 1257.01 359.761 1255 357 1255C354.239 1255 352 1257.01 352 1259.5C352 1261.99 354.239 1264 357 1264Z" fill="#884DE0"/>
<path opacity="0.2" d="M393 1264C395.761 1264 398 1261.99 398 1259.5C398 1257.01 395.761 1255 393 1255C390.239 1255 388 1257.01 388 1259.5C388 1261.99 390.239 1264 393 1264Z" fill="#884DE0"/>
<path opacity="0.2" d="M429 1264C431.761 1264 434 1261.99 434 1259.5C434 1257.01 431.761 1255 429 1255C426.239 1255 424 1257.01 424 1259.5C424 1261.99 426.239 1264 429 1264Z" fill="#884DE0"/>
<path opacity="0.2" d="M1837.5 560C1840.54 560 1843 557.761 1843 555C1843 552.239 1840.54 550 1837.5 550C1834.46 550 1832 552.239 1832 555C1832 557.761 1834.46 560 1837.5 560Z" fill="#884DE0"/>
<path opacity="0.2" d="M1837.5 595C1840.54 595 1843 592.538 1843 589.5C1843 586.462 1840.54 584 1837.5 584C1834.46 584 1832 586.462 1832 589.5C1832 592.538 1834.46 595 1837.5 595Z" fill="#884DE0"/>
<path opacity="0.2" d="M1837.5 629C1840.54 629 1843 626.761 1843 624C1843 621.239 1840.54 619 1837.5 619C1834.46 619 1832 621.239 1832 624C1832 626.761 1834.46 629 1837.5 629Z" fill="#884DE0"/>
<path opacity="0.2" d="M286.885 265.77C289.03 265.77 290.77 264.03 290.77 261.885C290.77 259.739 289.03 258 286.885 258C284.739 258 283 259.739 283 261.885C283 264.03 284.739 265.77 286.885 265.77Z" fill="#884DE0"/>
<path opacity="0.2" d="M317.285 265.77C319.43 265.77 321.17 264.03 321.17 261.885C321.17 259.739 319.43 258 317.285 258C315.139 258 313.4 259.739 313.4 261.885C313.4 264.03 315.139 265.77 317.285 265.77Z" fill="#884DE0"/>
<path opacity="0.2" d="M347.685 265.77C349.831 265.77 351.57 264.03 351.57 261.885C351.57 259.739 349.831 258 347.685 258C345.539 258 343.8 259.739 343.8 261.885C343.8 264.03 345.539 265.77 347.685 265.77Z" fill="#884DE0"/>
<path opacity="0.2" d="M286.885 292.285C289.03 292.285 290.77 290.546 290.77 288.4C290.77 286.255 289.03 284.515 286.885 284.515C284.739 284.515 283 286.255 283 288.4C283 290.546 284.739 292.285 286.885 292.285Z" fill="#884DE0"/>
<path opacity="0.2" d="M317.285 292.285C319.43 292.285 321.17 290.546 321.17 288.4C321.17 286.255 319.43 284.515 317.285 284.515C315.139 284.515 313.4 286.255 313.4 288.4C313.4 290.546 315.139 292.285 317.285 292.285Z" fill="#884DE0"/>
<path opacity="0.2" d="M347.685 292.285C349.831 292.285 351.57 290.546 351.57 288.4C351.57 286.255 349.831 284.515 347.685 284.515C345.539 284.515 343.8 286.255 343.8 288.4C343.8 290.546 345.539 292.285 347.685 292.285Z" fill="#884DE0"/>
<path opacity="0.2" d="M286.885 318.8C289.03 318.8 290.77 317.061 290.77 314.915C290.77 312.77 289.03 311.031 286.885 311.031C284.739 311.031 283 312.77 283 314.915C283 317.061 284.739 318.8 286.885 318.8Z" fill="#884DE0"/>
<path opacity="0.2" d="M317.285 318.8C319.43 318.8 321.17 317.061 321.17 314.915C321.17 312.77 319.43 311.031 317.285 311.031C315.139 311.031 313.4 312.77 313.4 314.915C313.4 317.061 315.139 318.8 317.285 318.8Z" fill="#884DE0"/>
<path opacity="0.2" d="M347.685 318.8C349.831 318.8 351.57 317.061 351.57 314.915C351.57 312.77 349.831 311.031 347.685 311.031C345.539 311.031 343.8 312.77 343.8 314.915C343.8 317.061 345.539 318.8 347.685 318.8Z" fill="#884DE0"/>
<defs>
<linearGradient id="paint0_linear" x1="127.191" y1="942.084" x2="215.298" y2="1107.02" gradientUnits="userSpaceOnUse">
<stop stop-color="#884DE0"/>
<stop offset="0.9557" stop-color="#884DE0" stop-opacity="0.2"/>
</linearGradient>
<linearGradient id="paint1_linear" x1="241.603" y1="354.438" x2="234.139" y2="625.071" gradientUnits="userSpaceOnUse">
<stop stop-color="#884DE0"/>
<stop offset="0.9557" stop-color="#884DE0" stop-opacity="0.2"/>
</linearGradient>
<linearGradient id="paint2_linear" x1="1896.34" y1="139.784" x2="1697.89" y2="108.604" gradientUnits="userSpaceOnUse">
<stop stop-color="#884DE0"/>
<stop offset="0.9557" stop-color="#884DE0" stop-opacity="0.2"/>
</linearGradient>
<linearGradient id="paint3_linear" x1="471.002" y1="310.002" x2="548.348" y2="310.002" gradientUnits="userSpaceOnUse">
<stop stop-color="#884DE0"/>
<stop offset="0.9557" stop-color="#884DE0" stop-opacity="0.2"/>
</linearGradient>
<linearGradient id="paint4_linear" x1="58.0003" y1="100.502" x2="187" y2="100.502" gradientUnits="userSpaceOnUse">
<stop stop-color="#884DE0"/>
<stop offset="0.9557" stop-color="#884DE0" stop-opacity="0.2"/>
</linearGradient>
<linearGradient id="paint5_linear" x1="409.002" y1="100.5" x2="459.004" y2="100.5" gradientUnits="userSpaceOnUse">
<stop stop-color="#884DE0"/>
<stop offset="0.9557" stop-color="#884DE0" stop-opacity="0.2"/>
</linearGradient>
<linearGradient id="paint6_linear" x1="102.992" y1="746.501" x2="140.999" y2="746.501" gradientUnits="userSpaceOnUse">
<stop stop-color="#884DE0"/>
<stop offset="0.9557" stop-color="#884DE0" stop-opacity="0.2"/>
</linearGradient>
<linearGradient id="paint7_linear" x1="1590.99" y1="1204.5" x2="1629" y2="1204.5" gradientUnits="userSpaceOnUse">
<stop stop-color="#884DE0"/>
<stop offset="0.9557" stop-color="#884DE0" stop-opacity="0.2"/>
</linearGradient>
<linearGradient id="paint8_linear" x1="1740.34" y1="1117.8" x2="1832.34" y2="1117.8" gradientUnits="userSpaceOnUse">
<stop stop-color="#884DE0"/>
<stop offset="0.9557" stop-color="#884DE0" stop-opacity="0.2"/>
</linearGradient>
<linearGradient id="paint9_linear" x1="1693.55" y1="915.085" x2="1729.3" y2="915.085" gradientUnits="userSpaceOnUse">
<stop stop-color="#884DE0"/>
<stop offset="0.9557" stop-color="#884DE0" stop-opacity="0.2"/>
</linearGradient>
<linearGradient id="paint10_linear" x1="1801.14" y1="884.959" x2="1822.78" y2="884.959" gradientUnits="userSpaceOnUse">
<stop stop-color="#884DE0"/>
<stop offset="0.9557" stop-color="#884DE0" stop-opacity="0.2"/>
</linearGradient>
<linearGradient id="paint11_linear" x1="1601.93" y1="855.943" x2="1617.29" y2="855.943" gradientUnits="userSpaceOnUse">
<stop stop-color="#884DE0"/>
<stop offset="0.9557" stop-color="#884DE0" stop-opacity="0.2"/>
</linearGradient>
<linearGradient id="paint12_linear" x1="1800.82" y1="1005.56" x2="1903.13" y2="1005.56" gradientUnits="userSpaceOnUse">
<stop stop-color="#884DE0"/>
<stop offset="0.819" stop-color="#884DE0" stop-opacity="0.2"/>
</linearGradient>
<linearGradient id="paint13_linear" x1="1677.8" y1="1028.33" x2="1704.06" y2="1028.33" gradientUnits="userSpaceOnUse">
<stop stop-color="#884DE0"/>
<stop offset="0.9557" stop-color="#884DE0" stop-opacity="0.2"/>
</linearGradient>
<linearGradient id="paint14_linear" x1="1671.37" y1="807.644" x2="1690.98" y2="807.644" gradientUnits="userSpaceOnUse">
<stop stop-color="#884DE0"/>
<stop offset="0.9557" stop-color="#884DE0" stop-opacity="0.2"/>
</linearGradient>
</defs>
</svg>
