<svg xmlns="http://www.w3.org/2000/svg" xmlns:xlink="http://www.w3.org/1999/xlink" viewBox="0 0 1291.2 530.93"><defs><style>.cls-1{fill:#fff;}.cls-2,.cls-3,.cls-4{opacity:0.75;}.cls-2{fill:url(#Gradiente_sem_nome_8);}.cls-3{fill:url(#Gradiente_sem_nome_9);}.cls-4{fill:url(#Gradiente_sem_nome_7);}</style><linearGradient id="Gradiente_sem_nome_8" x1="227.85" y1="80.65" x2="437.46" y2="167.3" gradientUnits="userSpaceOnUse"><stop offset="0.02" stop-color="#fff"/><stop offset="0.35" stop-color="#fff" stop-opacity="0.62"/><stop offset="0.67" stop-color="#fff" stop-opacity="0.29"/><stop offset="0.89" stop-color="#fff" stop-opacity="0.08"/><stop offset="1" stop-color="#fff" stop-opacity="0"/></linearGradient><linearGradient id="Gradiente_sem_nome_9" x1="409.98" y1="8.35" x2="504.48" y2="143.32" gradientUnits="userSpaceOnUse"><stop offset="0" stop-color="#fff"/><stop offset="0.34" stop-color="#fff" stop-opacity="0.62"/><stop offset="0.66" stop-color="#fff" stop-opacity="0.29"/><stop offset="0.89" stop-color="#fff" stop-opacity="0.08"/><stop offset="1" stop-color="#fff" stop-opacity="0"/></linearGradient><linearGradient id="Gradiente_sem_nome_7" x1="814.4" y1="434.14" x2="1200.93" y2="564.98" gradientUnits="userSpaceOnUse"><stop offset="0" stop-color="#fff" stop-opacity="0"/><stop offset="0.11" stop-color="#fff" stop-opacity="0.08"/><stop offset="0.32" stop-color="#fff" stop-opacity="0.29"/><stop offset="0.62" stop-color="#fff" stop-opacity="0.62"/><stop offset="0.93" stop-color="#fff"/></linearGradient></defs><g id="Camada_2" data-name="Camada 2"><g id="Camada_1-2" data-name="Camada 1"><path class="cls-1" d="M38.09,189.05a48.51,48.51,0,0,0-7.86.9,47.43,47.43,0,0,1-7.13.89q-.62,13.11-2.84,29.4t-3.87,25.19q-1.63,8.91-6.23,32.87-5.8,28-8,42A159.65,159.65,0,0,0,0,343.8q0,11.76,3.51,16.8c2.33,3.35,6.29,5,11.85,5A38.51,38.51,0,0,0,22,364.9q4.05-.72,5.74-.83-1.7-27.43,11-86.67,11.37-54.52,11.37-71.33,0-9-2.84-13T38.09,189.05Z"/><path class="cls-1" d="M286.93,273q-6.36-9.63-12.4-17.18t-12.34-14.67q-6.28-7.11-8.1-9.69-18.87,6-29.39,6.61-.24,15.78-5.86,40.2c-3.15,13.67-13,47.06-30.28,63.19a20.92,20.92,0,0,1-14,5.78h-.11q-12.69,0-12.69-15.12,0-6.82,4.83-31.07t4.84-35.21q0-16.8-8-25.25T141,232.16a46.55,46.55,0,0,0-20.44,4.37,64.17,64.17,0,0,0-14.75,9.41c-.48-3.74-1.56-6.5-3.2-8.29S98.42,235,95.12,235a45.52,45.52,0,0,0-7.26.9,45.46,45.46,0,0,1-7.26.89,142.76,142.76,0,0,1-2.17,29.79A298.26,298.26,0,0,1,72,296.21q-3.63,13.1-6.72,28.22t-3.08,25.42q0,8.63,2.54,12.87T73.35,367a41.21,41.21,0,0,0,7.37-1,41.45,41.45,0,0,1,7-1q-.73-11.08,1.69-27t7.62-39.69q5.2-23.75,6.77-31.92,13.43-13.1,26.49-13.1,15.12,0,15.12,17.47,0,7.17-5,30.57t-5,33.7q0,16.35,9.07,24.3t24.92,7.95c55.34.67,67.17-71.21,68.87-79.05s2.9-14.15,3.63-18.93,1.29-9.1,1.69-13q12.81,9.51,22,26.81t9.19,31.19q0,17.58-11.12,26.48t-27.94,8.9c-6.23,8.89-.42,15.36,1.39,16.52a12.28,12.28,0,0,0,6.71,1.73,65.68,65.68,0,0,0,21.89-3.64,58.21,58.21,0,0,0,18.26-10.18,46.5,46.5,0,0,0,12.46-16.52,51.44,51.44,0,0,0,4.6-21.84,65.68,65.68,0,0,0-3.93-21.83A95,95,0,0,0,286.93,273Z"/><path class="cls-1" d="M734.7,232.16a56.5,56.5,0,0,0-22,4.26A53.7,53.7,0,0,0,695,248.23,74.29,74.29,0,0,0,682.15,266a89.94,89.94,0,0,0-8.1,22.34,115.41,115.41,0,0,0-2.72,25.25q0,25.76,12.76,40.31t34.53,14.55a54.07,54.07,0,0,0,27.51-7,54.79,54.79,0,0,0,19.48-18.75,95.51,95.51,0,0,0,11.12-26.15,117.79,117.79,0,0,0,3.81-30.28q0-26.21-12.21-40.15T734.7,232.16Zm10.28,98q-9.32,16.91-25.64,16.91-9.92,0-15.72-9.69t-5.8-25.81a91,91,0,0,1,4.53-29.23q4.53-13.43,12.64-21.38T733,253q10,0,15.66,8.62T754.3,286Q754.3,313.23,745,330.14Z"/><path class="cls-1" d="M1143.59,222.09a18.08,18.08,0,0,0,14.7-6.89,23.43,23.43,0,0,0,5.62-15.17,13.26,13.26,0,0,0-3.5-9.58q-3.51-3.63-9.8-3.63-9.31,0-14.7,6.6a23.33,23.33,0,0,0-5.38,15.12,14.73,14.73,0,0,0,3.21,9.63Q1136.94,222.09,1143.59,222.09Z"/><path class="cls-1" d="M1279,246.1q-12.21-13.93-33.62-13.94a56.46,56.46,0,0,0-21.95,4.26,53.6,53.6,0,0,0-17.72,11.81A74,74,0,0,0,1192.82,266a101.79,101.79,0,0,0-8.11,22.34c-4.18,16.29-2.49,28.44-9.65,40.84q-10.55,18.33-25.18,18.34-12,0-12-14.68,0-10.06,8.23-40.75t8.22-42.21q0-14.9-11.49-14.9a43.44,43.44,0,0,0-6.89.9,43.38,43.38,0,0,1-7.14.89,134.33,134.33,0,0,1-2,25.76,263.28,263.28,0,0,1-5.44,25.92c-2.05,7.65-6.3,37.73-26.36,51.73q-12.09,8-30.35,8-13.07,0-22.32-6a31.23,31.23,0,0,1-12.88-17.42,97.77,97.77,0,0,0,35-11.31,73,73,0,0,0,25-22,48.53,48.53,0,0,0,9.25-28.27q0-15.12-9.92-23.07t-25.76-8a49.88,49.88,0,0,0-21.34,4.65,55.33,55.33,0,0,0-17.3,12.49,81.86,81.86,0,0,0-12.64,18,90.31,90.31,0,0,0-8,21.38c-3.46,13.47-3,27.45-9.94,41.26a37.61,37.61,0,0,1-6.31,9.12q-8.9,9.36-20.33,9.36-17.29,0-17.3-25c0-2.47.1-5,.31-7.73s.6-5.87,1.2-9.57,1.09-6.68,1.46-9,1.08-5.84,2.17-10.69,1.82-8.1,2.18-9.74,1.23-5.38,2.6-11.2,2.18-9.22,2.42-10.19h13.42q12.09,0,17.42-2.4t5.32-9.8q0-2.13-.72-8.18h-31q3.27-16.23,3.27-25.3,0-15.79-11.25-15.79a40.2,40.2,0,0,0-7.19,1,40.61,40.61,0,0,1-6.84,1q.38,13.43-5,39.07h-17.9q-5.44,5.49-5.44,12.1,0,8.28,12.22,8.28h7.13q-4.11,20.05-5.86,28.72T926,306.85c-.64,4.22-5.7,37.8-34.71,40.42q-7,0-10.22-5.15t-3.21-16.35q0-15.78,4.66-37t11.43-34.54a9.62,9.62,0,0,0,3.93-4.65,15.79,15.79,0,0,0,1.51-6.66q0-7.5-4.23-10.52-23.48,5.49-85.87,5.48,1.2,45-13.91,80.29c19.51,14.57,27.65-11.27,30.72-24.86a220.38,220.38,0,0,0,5.44-36.39,290.46,290.46,0,0,0,34.23-1.79,297.39,297.39,0,0,0-9.86,37.51q-3.81,19.49-3.81,33.81,0,20.38,9,30.57t26.43,10.19a54.39,54.39,0,0,0,18.38-3,46.44,46.44,0,0,0,14.88-8.57,78.08,78.08,0,0,0,6.86-6.73,28.06,28.06,0,0,0,8.26,11,38.27,38.27,0,0,0,12.39,6.44,50.73,50.73,0,0,0,14.88,2.07,57.77,57.77,0,0,0,16.44-2.24,50.53,50.53,0,0,0,13.07-5.71,53.77,53.77,0,0,0,10.46-8.9,85.34,85.34,0,0,0,6.61-8,43.59,43.59,0,0,0,10.2,11.44,61.42,61.42,0,0,0,19.53,10.07,78.12,78.12,0,0,0,23.28,3.36,94.62,94.62,0,0,0,24.55-3,67.25,67.25,0,0,0,19.53-8.45,69.78,69.78,0,0,0,8.73-6.77,23,23,0,0,0,6.39,9.45q8.7,7.56,23.7,7.56,26.5,0,43.13-22.1a45.87,45.87,0,0,0,6,8.78q12.76,14.55,34.53,14.55a54.13,54.13,0,0,0,27.52-7,54.68,54.68,0,0,0,19.47-18.75,95.53,95.53,0,0,0,11.13-26.15,117.79,117.79,0,0,0,3.8-30.28Q1291.2,260,1279,246.1Zm-241.21,22q9.36-16.41,23.64-16.4,6.4,0,10.16,3.69a12.94,12.94,0,0,1,3.75,9.63q0,9.86-6.72,19.43a57.17,57.17,0,0,1-17.71,16.18,59.35,59.35,0,0,1-23.1,8.17Q1028.4,284.47,1037.78,268.05Zm217.87,62.09Q1246.34,347,1230,347.05q-9.91,0-15.73-9.69t-5.8-25.81a90.74,90.74,0,0,1,4.54-29.23q4.53-13.43,12.63-21.38t18-7.95q10,0,15.67,8.62T1265,286Q1265,313.23,1255.65,330.14Z"/><path class="cls-1" d="M599.31,188.39a72.47,72.47,0,0,0-15.84,5.87,64.92,64.92,0,0,0-25,21.78,52.62,52.62,0,0,0-9.25,29.9,38.61,38.61,0,0,0,4.11,17.8,42.74,42.74,0,0,0,10.58,13.49,105.6,105.6,0,0,0,14.4,10.08q7.92,4.65,15.84,8.68t14.39,8.17a40,40,0,0,1,10.59,9.63,19.56,19.56,0,0,1,4.11,12q0,9.86-8.53,15.12t-21.23,5.26c-44.6-5.28-48.38-33-54-32.59-8.51-.37-8.87,32.83-33,33.94q-12.21,0-12.21-16,0-9.63,7-39.08t6.95-41q0-16.46-9.91-16.46a49.12,49.12,0,0,0-7.8.9,48.71,48.71,0,0,1-7.32.89,69.1,69.1,0,0,1-.24,13.11q-2.18-6.95-9.43-12.32t-18.75-5.38a47,47,0,0,0-18.2,3.59,50.48,50.48,0,0,0-15.3,9.79,74.35,74.35,0,0,0-12,14.62,91.15,91.15,0,0,0-8.82,18.19A136.26,136.26,0,0,0,394.89,300c-1.13,6.51-2.71,22.57-11.69,35.16q-10,13.21-23.59,13.21-17.3,0-17.29-25c0-2.47.1-5,.3-7.73s.6-5.87,1.21-9.57,1.09-6.68,1.45-9,1.09-5.84,2.18-10.69,1.81-8.1,2.17-9.74,1.23-5.38,2.6-11.2,2.18-9.22,2.42-10.19h13.43q12.09,0,17.41-2.4t5.32-9.8q0-2.13-.72-8.18h-31q3.25-16.23,3.26-25.3,0-15.79-11.25-15.79a40.31,40.31,0,0,0-7.19,1,40.67,40.67,0,0,1-6.83,1q.36,13.43-5,39.07h-17.9q-5.44,5.49-5.44,12.1,0,8.28,12.21,8.28h7.14Q324,275.4,322.3,284.06t-3.87,22.79a159.37,159.37,0,0,0-2.12,22.28,49,49,0,0,0,3.21,18.53,28.69,28.69,0,0,0,8.83,12.26,38.37,38.37,0,0,0,12.39,6.44,50.78,50.78,0,0,0,14.88,2.07,57.89,57.89,0,0,0,16.45-2.24,50.6,50.6,0,0,0,13.06-5.71,53.48,53.48,0,0,0,10.46-8.9c1.17-1.27,2.24-2.51,3.27-3.75a37.51,37.51,0,0,0,5.37,8.17q10.95,12.44,27.88,12.43,24.31,0,38.71-21.38,3.49,10.63,11.66,15.39a36.13,36.13,0,0,0,18.57,4.76,52.55,52.55,0,0,0,18.08-3,42.47,42.47,0,0,0,14.27-8.51,71.1,71.1,0,0,0,7.54-8,56.2,56.2,0,0,0,8.18,7.4,66.17,66.17,0,0,0,19.35,9.52A79.37,79.37,0,0,0,593,368.43a76.92,76.92,0,0,0,21.53-3,68.19,68.19,0,0,0,18.81-8.62,42.33,42.33,0,0,0,13.42-14.39,38.44,38.44,0,0,0,5-19.43,35.76,35.76,0,0,0-2.6-13.71,36.54,36.54,0,0,0-7-11,68,68,0,0,0-10.1-8.85,116.1,116.1,0,0,0-12-7.56q-6.23-3.4-12.51-6.72t-12-6.83a74.81,74.81,0,0,1-10.1-7.33,29.85,29.85,0,0,1-6.95-8.85,23,23,0,0,1-2.6-10.75q0-14.88,12.64-24.74t29.93-9.85q10.89,0,17,4.25t6.11,10.86q0,13.09-28.3,21a26.69,26.69,0,0,0,6.29,10.75A14.85,14.85,0,0,0,631,259a23.61,23.61,0,0,0,10.16-2.8A48.67,48.67,0,0,0,652,248.79,38.86,38.86,0,0,0,660.81,237a33,33,0,0,0,3.57-14.89,30.76,30.76,0,0,0-3.1-13.76ZM471.48,314.07q-4.55,14.83-13.06,23.91t-19.05,9.07q-9.08,0-14.21-8.29T420,315.92a97.91,97.91,0,0,1,4.35-28.78A64.73,64.73,0,0,1,437.49,263q8.77-10,19.9-10,9.44,0,14,7.56t4.6,21.33A109.75,109.75,0,0,1,471.48,314.07Z"/><path class="cls-1" d="M676.78,187.07l-16.68-.63a2,2,0,0,1-1.9-1.83l-3-25.57a2,2,0,0,0-2.78-1.67l-24,9.34a2,2,0,0,1-2.5-.82l-8.36-14.45c-1-1.67-3.47-1.11-4.06.91l-6,20.24a2.21,2.21,0,0,0,.87,2.56l53,31.93,16.4-16C679.38,189.62,678.7,187.14,676.78,187.07Z"/><path class="cls-2" d="M379.72,127.73c-4.4-3-8.74-6.1-13.35-8.79l-3.43-2.1-1.71-1-1.76-1L352.41,111a255.85,255.85,0,0,0-29.6-13.07,269,269,0,0,0-63.7-14.52c-1.31-.14-2.63-.26-3.94-.38l-9.09,15.15,7.85,15.53c1.44-.11,2.89-.23,4.34-.31a233.92,233.92,0,0,1,88.23,11.38l7.13,2.53,1.78.64,1.76.72,3.51,1.44c4.74,1.81,9.26,4.1,13.89,6.23a242.47,242.47,0,0,1,51.1,34.45A247,247,0,0,0,379.72,127.73Z"/><path class="cls-3" d="M503.45,134.35c-1.13-3.42-2.3-6.84-3.63-10.19a202.41,202.41,0,0,0-8.93-19.77A213.8,213.8,0,0,0,467,67.77a183.79,183.79,0,0,0-31.94-30.9c-2.7-2-5.49-4-8.33-5.87l-6.94,4.67.3,10c2.24,1.16,4.46,2.36,6.64,3.65A171.22,171.22,0,0,1,459.6,74.51a205.48,205.48,0,0,1,27,32.42,195.77,195.77,0,0,1,11,18.27c1.7,3.14,3.23,6.35,4.74,9.59s2.84,6.57,4.07,9.94C505.52,141.24,504.53,137.78,503.45,134.35Z"/><path class="cls-1" d="M185.62,38.72l21.15,23.51a5.7,5.7,0,0,0,4.84,1.86l31.44-3.32a5.7,5.7,0,0,1,5.54,8.53L232.77,96.67a5.74,5.74,0,0,0-.27,5.18l12.87,28.88a5.71,5.71,0,0,1-6.4,7.91l-30.92-6.59a5.72,5.72,0,0,0-5,1.34l-23.49,21.17a5.71,5.71,0,0,1-9.5-3.65l-3.29-31.44a5.7,5.7,0,0,0-2.82-4.35l-27.39-15.8a5.71,5.71,0,0,1,.53-10.16L166,76.32a5.75,5.75,0,0,0,3.27-4l6.55-30.93A5.71,5.71,0,0,1,185.62,38.72Z"/><path class="cls-1" d="M402.53,1.52l4.6,12.17a2.33,2.33,0,0,0,1.58,1.43l12.55,3.42a2.35,2.35,0,0,1,.85,4.1L412,30.77a2.35,2.35,0,0,0-.88,1.95l.62,13a2.35,2.35,0,0,1-3.63,2.08L397.2,40.65a2.34,2.34,0,0,0-2.13-.24L382.91,45a2.35,2.35,0,0,1-3.1-2.82l3.44-12.54a2.34,2.34,0,0,0-.44-2.09l-8.14-10.15a2.35,2.35,0,0,1,1.72-3.81l13-.61a2.35,2.35,0,0,0,1.85-1.06l7.13-10.88A2.35,2.35,0,0,1,402.53,1.52Z"/><path class="cls-4" d="M1104.94,510.34l-19.15-11.17-1.62.24a305.77,305.77,0,0,1-41.3,2.81,431.18,431.18,0,0,1-83.74-8.55,523.23,523.23,0,0,1-81.89-23.37c-26.67-10.06-52.68-22.26-77.08-37.44,23,17.25,48.07,31.82,74.14,44.34a533.05,533.05,0,0,0,81.28,31,449.36,449.36,0,0,0,86.34,16.46,331.21,331.21,0,0,0,44.71.85q9.38-.49,18.78-1.63Z"/><path class="cls-1" d="M1131.48,455l13.68,15.21a3.7,3.7,0,0,0,3.13,1.2l20.34-2.15a3.7,3.7,0,0,1,3.59,5.52L1162,492.53a3.67,3.67,0,0,0-.17,3.35l8.32,18.68a3.69,3.69,0,0,1-4.14,5.11l-20-4.26a3.71,3.71,0,0,0-3.24.87L1127.55,530a3.68,3.68,0,0,1-6.14-2.35l-2.13-20.35a3.68,3.68,0,0,0-1.83-2.81l-17.71-10.22a3.69,3.69,0,0,1,.34-6.57l18.69-8.31a3.68,3.68,0,0,0,2.11-2.61l4.24-20A3.7,3.7,0,0,1,1131.48,455Z"/></g></g></svg>